<?xml version="1.0" encoding="UTF-8" standalone="no"?>
<svg
   width="1024"
   height="1024"
   version="1.1"
   id="svg6"
   sodipodi:docname="logo-design.svg"
   inkscape:version="1.3.2 (091e20e, 2023-11-25, custom)"
   xmlns:inkscape="http://www.inkscape.org/namespaces/inkscape"
   xmlns:sodipodi="http://sodipodi.sourceforge.net/DTD/sodipodi-0.dtd"
   xmlns="http://www.w3.org/2000/svg"
   xmlns:svg="http://www.w3.org/2000/svg">
  <defs
     id="defs6" />
  <sodipodi:namedview
     id="namedview6"
     pagecolor="#ffffff"
     bordercolor="#000000"
     borderopacity="0.25"
     inkscape:showpageshadow="2"
     inkscape:pageopacity="0.0"
     inkscape:pagecheckerboard="0"
     inkscape:deskcolor="#d1d1d1"
     inkscape:zoom="0.79394531"
     inkscape:cx="512"
     inkscape:cy="209.71218"
     inkscape:window-width="1920"
     inkscape:window-height="1009"
     inkscape:window-x="355"
     inkscape:window-y="-8"
     inkscape:window-maximized="1"
     inkscape:current-layer="svg6" />
  <path
     d="m 101.24788,507.61945 10.58666,0.13282 c -3.85285,2.83735 -7.30652,6.26339 -10.83831,9.46571 z"
     id="path1"
     style="stroke-width:1.7085" />
  <path
     fill="#161914"
     d="m 101.19235,23.346513 c 8.10834,1.421196 17.47666,0.63071 25.74815,0.632386 18.60823,0.0028 37.32926,-0.359919 55.92534,0.233791 l -0.0226,278.90857 -0.0277,89.15218 c -0.001,16.58012 -0.89554,33.64631 0.62999,50.13897 -8.61164,10.4227 -20.15283,19.43596 -30.34034,28.45428 l -41.27062,36.88563 -10.58667,-0.13283 z"
     id="path2"
     style="stroke-width:1.7085" />
  <path
     fill="#161914"
     d="m 295.17124,410.96433 c 16.4232,0.83927 33.05468,0.33133 49.49177,0.12111 0.56231,24.09818 0.15446,48.39482 -0.20479,72.49974 -4.06459,4.15261 -9.08891,7.45752 -13.57003,11.18964 -9.81609,8.17737 -52.36057,43.22806 -56.7983,51.04213 l 1.46825,0.40871 0.35057,-0.8914 3.59946,-0.58026 -0.47552,0.93344 0.30024,0.59708 c 21.66621,-0.67444 43.47648,0.16988 65.17046,0.003 1.07602,28.25919 0.43907,56.72021 0.37833,85.00799 -24.61833,-1.20424 -49.43102,-0.66266 -74.08407,-0.67107 -29.13589,-0.0111 -58.32903,-0.39693 -87.4493,0.49616 -1.02743,14.01019 -0.52413,28.27433 -0.52759,42.31646 l 0.0191,69.16287 -0.0817,214.52565 0.0346,40.95913 c -27.09319,0.039 -54.46578,-0.703 -81.51209,0.6072 l 0.0468,-240.23676 c 0.008,-56.4057 0.63866,-112.8854 -0.16835,-169.28268 26.09525,-25.44203 53.77851,-49.19542 80.74847,-73.71576 l 76.25347,-70.67153 c 12.16598,-11.33092 25.31773,-22.07487 37.00992,-33.82121 z"
     id="path3"
     style="stroke-width:1.7085" />
  <path
     fill="#161914"
     d="m 259.20955,691.80036 63.3794,0.11272 c 32.3761,20.83532 63.34642,43.96641 94.51806,66.40962 15.0782,10.85662 30.63885,21.15318 45.70835,32.01318 5.63697,4.06177 10.78798,8.76099 16.42495,12.84126 20.72557,15.00251 42.46465,28.86468 63.23882,43.79486 l 68.1191,48.85903 c 9.54707,6.79484 18.50408,14.46765 28.68985,20.36439 l 303.39464,-0.2321 0.17528,56.2745 c 0.0139,8.03269 1.15587,17.95089 -0.3662,25.76999 l -2.0479,0.5903 -438.09689,-0.2943 -157.04707,0.3095 c -28.54581,0.014 -56.91285,0.6257 -85.44129,-0.2624 -1.22876,-36.26165 0.0832,-72.96227 0.10069,-109.26764 z m 83.31009,115.42169 c 0.94759,26.34688 0.62479,52.67021 0.57273,79.02718 -0.0191,9.97363 -0.55884,20.10201 -0.12843,30.05041 51.17003,-1.30346 102.40079,0.64249 153.58122,-0.0571 -0.96667,-1.53219 -1.67131,-2.27895 -3.16385,-3.41424 -33.02692,-25.13256 -68.03232,-48.119 -102.01203,-72.04227 -9.72411,-6.8453 -40.85584,-30.53648 -48.84964,-33.56389 z"
     id="path4"
     style="stroke-width:1.7085" />
  <path
     fill="#161914"
     d="m 690.15439,200.21454 c 8.52312,-0.72995 17.62244,-0.39861 26.19243,-0.26743 76.16497,1.16725 150.971,31.85509 208.02445,80.17255 8.14825,6.90083 15.60057,14.70481 23.13445,22.22793 -13.36175,10.91716 -25.72211,23.72816 -38.13802,35.69148 -6.83793,6.58798 -14.67901,13.01787 -20.55721,20.39803 -34.08212,-27.10543 -50.70143,-44.65095 -94.26294,-60.68781 -56.58138,-20.82859 -121.59389,-22.09674 -177.27801,2.31933 -56.70805,24.86177 -104.0339,70.59752 -126.06804,127.4876 -21.0987,54.47656 -20.21185,123.811 4.77962,177.011 25.46874,54.21419 74.13613,99.05182 131.94799,119.67184 52.49248,18.72117 112.86943,18.02822 165.47473,-0.32629 10.27601,-3.58411 20.22226,-8.39098 30.12165,-12.85473 q 23.83215,-13.51906 45.19464,-30.4776 c 6.621,-5.32487 12.45062,-11.33429 19.25037,-16.50947 0.24818,0.13786 0.49983,0.27077 0.74455,0.41542 0.40784,0.24051 0.807,0.49448 1.21311,0.73667 8.89974,5.30133 16.34858,15.07987 23.80264,22.28342 12.4211,12.00537 22.4524,20.29373 34.27822,33.63621 -37.43686,31.63643 -71.12155,58.48284 -118.11244,76.47406 q -3.68276,1.44307 -7.40026,2.79868 -3.7192,1.35392 -7.46965,2.61871 -3.7522,1.26479 -7.53562,2.44043 -3.7817,1.17395 -7.59463,2.25878 -3.81121,1.08314 -7.64843,2.07546 -3.83897,0.99232 -7.7005,1.89213 -3.86327,0.89981 -7.74736,1.70712 -3.88409,0.80731 -7.78726,1.52043 -3.90319,0.71481 -7.82373,1.33375 -3.92053,0.62062 -7.85495,1.14537 -3.93615,0.52642 -7.88272,0.95699 -3.94831,0.43225 -7.90529,0.76863 -3.95698,0.33638 -7.9209,0.57857 -3.96394,0.24051 -7.9348,0.38853 -3.96912,0.14633 -7.93999,0.19677 -3.9726,0.0521 -7.94521,0.009 -3.97086,-0.0438 -7.94172,-0.18332 -3.96913,-0.13786 -7.93478,-0.37339 -3.96394,-0.23377 -7.92265,-0.56175 -3.95699,-0.32965 -7.90529,-0.75348 -3.9483,-0.42384 -7.88446,-0.94187 -3.93616,-0.51802 -7.85843,-1.13023 -3.92053,-0.61221 -7.82546,-1.3186 -3.90491,-0.7064 -7.79074,-1.50529 -3.88582,-0.80059 -7.75082,-1.69369 -3.86326,-0.89139 -7.70396,-1.87698 -3.84071,-0.98391 -7.65363,-2.06033 -3.81468,-1.0764 -7.59985,-2.24364 -3.78516,-1.16891 -7.53908,-2.42697 -3.75394,-1.25638 -7.47489,-2.60526 -3.72095,-1.34719 -7.40718,-2.78353 -3.68451,-1.43634 -7.33257,-2.96015 c -71.17186,-30.17376 -136.55405,-92.4846 -164.87598,-162.90384 -8.82337,-21.94031 -16.93692,-46.45392 -20.97027,-69.7078 -2.82717,-16.30764 -3.10658,-32.02159 -3.11699,-48.50248 -0.0126,-18.64548 0.25338,-37.259 3.01633,-55.75816 3.42071,-22.90404 14.47076,-54.43115 24.11329,-75.42625 20.34721,-44.30614 52.11068,-81.18672 89.21085,-113.22682 5.8244,-5.03054 13.34962,-13.30884 20.60407,-15.87036 2.03925,-0.72153 3.41203,-1.21601 5.18401,-2.43538 41.67152,-28.64099 103.73887,-47.75067 154.70931,-50.84199 z"
     id="path5"
     style="stroke-width:1.7085" />
  <path
     fill="#161914"
     d="m 259.36921,24.009181 c 36.01203,-0.622302 72.10907,0.07738 108.12801,0.210241 l 140.67244,-0.119423 434.48355,-0.02528 c -0.97189,10.13846 -0.27074,20.862221 -0.23429,31.066274 0.0608,17.088046 -0.10587,34.21478 0.43387,51.294407 l -255.49085,0.26239 c -14.46208,-0.0657 -28.92069,0.53316 -43.39492,0.43392 -24.02997,15.27328 -46.44073,33.36542 -68.9556,50.65193 l -68.81852,52.04792 c -62.11246,47.44288 -125.25408,93.64284 -187.15135,141.41537 -19.99664,0.61389 -39.96551,-0.36666 -59.92224,0.28929 1.64701,-10.21077 0.46338,-21.83604 0.45818,-32.25537 l -0.004,-64.06842 z m 219.9787,82.917399 -136.68943,0.21192 c 0.0295,41.47887 -0.61263,83.08391 0.59008,124.54429 4.1774,-4.32752 9.67031,-7.34315 13.62383,-11.50583 17.2684,-11.58827 33.39484,-26.14506 49.62539,-39.1192 18.70195,-14.95036 38.43479,-28.86468 57.64352,-43.20115 13.72621,-10.24441 26.89012,-21.61739 41.19078,-31.07468 q -12.99035,0.49785 -25.98417,0.14465 z"
     id="path6"
     style="stroke-width:1.7085" />
</svg>
